<?xml version="1.0" encoding="utf-8"?>
<!-- Generator: Adobe Illustrator 25.0.0, SVG Export Plug-In . SVG Version: 6.00 Build 0)  -->
<svg version="1.1" id="katman_1" xmlns="http://www.w3.org/2000/svg" xmlns:xlink="http://www.w3.org/1999/xlink" x="0px" y="0px"
	 viewBox="0 0 3435.4 2624" style="enable-background:new 0 0 3435.4 2624;" xml:space="preserve">
<style type="text/css">
	.st0{fill:#326DE6;}
	.st1{fill:#FFFFFF;}
</style>
<path class="st0" d="M1269.3,2488.1c-58.1,0-112.9-25.8-150-72.6l-564.5-701.6c-37.1-46.8-51.6-106.4-37.1-164.5l201.6-875.8
	c12.9-58.1,51.6-104.8,104.8-130.6l816.1-390.3c25.8-12.9,54.8-19.3,83.9-19.3c29,0,58.1,6.4,83.9,19.4l816.1,388.7
	c53.2,25.8,91.9,72.6,104.8,130.6l201.6,875.8c12.9,58.1,0,117.7-37.1,164.5L2329,2413.9c-37.1,45.2-91.9,72.6-150,72.6
	L1269.3,2488.1L1269.3,2488.1z"/>
<path class="st1" d="M1722.5,173.6c22.6,0,45.2,4.8,66.1,14.5l816.1,388.7c41.9,21,74.2,59.7,83.9,104.8l201.6,875.8
	c11.3,46.8,0,95.2-30.6,132.3l-564.5,701.6c-29,37.1-74.2,58.1-121,58.1h-904.8c-46.8,0-91.9-21-121-58.1l-564.5-701.6
	c-29-37.1-40.3-85.5-30.6-132.3l201.6-875.8c11.3-46.8,41.9-85.5,83.9-104.8l816.1-390.3C1675.8,178.4,1700,173.6,1722.5,173.6
	L1722.5,173.6z M1722.5,97.8c-33.9,0-67.7,8.1-100,22.6L806.4,510.7c-64.5,30.6-109.7,87.1-125.8,156.4L479,1543
	c-16.1,69.4,0,140.3,45.2,196.8l564.5,701.6c43.6,54.8,109.7,85.5,179,85.5h904.8c69.4,0,135.5-30.6,179-85.5l564.5-701.6
	c45.2-54.8,61.3-127.4,45.2-196.8l-201.6-875.8c-16.1-69.4-61.3-125.8-125.8-156.4l-812.9-390.3
	C1790.3,105.9,1756.4,97.8,1722.5,97.8z"/>
<path class="st1" d="M2540.3,1488.1C2538.7,1488.1,2538.7,1488.1,2540.3,1488.1h-1.6c-1.6,0-3.2,0-3.2-1.6c-3.2,0-6.4-1.6-9.7-1.6
	c-11.3-1.6-21-3.2-30.6-3.2c-4.8,0-9.7,0-16.1-1.6h-1.6c-33.9-3.2-61.3-6.4-87.1-14.5c-11.3-4.8-14.5-11.3-17.7-17.7
	c0-1.6-1.6-1.6-1.6-3.2l-21-6.4c9.9-75.9,6.1-152.9-11.3-227.4c-17.6-75.1-48.2-146.6-90.3-211.3l16.1-14.5v-3.2
	c0-8.1,1.6-16.1,8.1-24.2c19.4-17.7,43.6-32.3,72.6-50c4.8-3.2,9.7-4.8,14.5-8.1c9.7-4.8,17.7-9.7,27.4-16.1
	c1.6-1.6,4.8-3.2,8.1-6.4c1.6-1.6,3.2-1.6,3.2-3.2c22.6-19.4,27.4-51.6,11.3-72.6c-8.1-11.3-22.6-17.7-37.1-17.7
	c-12.9,0-24.2,4.8-35.5,12.9l-3.2,3.2c-3.2,1.6-4.8,4.8-8.1,6.5c-8.1,8.1-14.5,14.5-21,22.6c-3.2,3.2-6.4,8.1-11.3,11.3
	c-22.6,24.2-43.6,43.6-64.5,58.1c-4.8,3.2-9.7,4.8-14.5,4.8c-3.2,0-6.5,0-9.7-1.6h-3.2l-19.4,12.9c-21-22.6-43.5-41.9-66.1-61.3
	c-97.2-76-214.2-122.5-337.1-133.9l-1.6-21l-3.2-3.2c-4.8-4.8-11.3-9.7-12.9-21c-1.6-25.8,1.6-54.8,4.8-87.1v-1.6
	c0-4.8,1.6-11.3,3.2-16.1c1.6-9.7,3.2-19.4,4.8-30.6v-14.5c0-29-22.6-53.2-50-53.2c-12.9,0-25.8,6.4-35.5,16.1
	c-9.7,9.7-14.5,22.6-14.5,37.1v12.9c0,11.3,1.6,21,4.8,30.6c1.6,4.8,1.6,9.7,3.2,16.1v1.6c3.2,32.3,8.1,61.3,4.8,87.1
	c-1.6,11.3-8.1,16.1-12.9,21l-3.2,3.2l-1.6,21c-29,3.2-58.1,6.4-87.1,12.9c-124.2,27.4-233.9,90.3-319.3,180.6l-16.1-11.3h-3.2
	c-3.2,0-6.5,1.6-9.7,1.6c-4.8,0-9.7-1.6-14.5-4.8c-21-14.5-41.9-35.5-64.5-59.7c-3.2-3.2-6.4-8.1-11.3-11.3
	c-6.5-8.1-12.9-14.5-21-22.6c-1.6-1.6-4.8-3.2-8.1-6.5c-1.6-1.6-3.2-1.6-3.2-3.2c-10-8.3-22.5-12.8-35.5-12.9
	c-14.5,0-29,6.5-37.1,17.7c-16.1,21-11.3,53.2,11.3,72.6c1.6,0,1.6,1.6,3.2,1.6c3.2,1.6,4.8,4.8,8.1,6.4
	c9.7,6.4,17.7,11.3,27.4,16.1c4.8,1.6,9.7,4.8,14.5,8.1c29,17.7,53.2,32.3,72.6,50c8.1,8.1,8.1,16.1,8.1,24.2v3.2l16.1,14.5
	c-3.2,4.8-6.4,8.1-8.1,12.9c-80.6,127.4-111.3,277.4-90.3,425.8l-21,6.4c0,1.6-1.6,1.6-1.6,3.2c-3.2,6.5-8.1,12.9-17.7,17.7
	c-24.2,8.1-53.2,11.3-87.1,14.5h-1.6c-4.8,0-11.3,0-16.1,1.6c-9.7,0-19.4,1.6-30.6,3.2c-3.2,0-6.4,1.6-9.7,1.6c-1.6,0-3.2,0-4.8,1.6
	c-29,6.4-46.8,33.9-41.9,59.7c4.8,22.6,25.8,37.1,51.6,37.1c4.8,0,8.1,0,12.9-1.6c1.6,0,3.2,0,3.2-1.6c3.2,0,6.4-1.6,9.7-1.6
	c11.3-3.2,19.4-6.4,29-11.3c4.8-1.6,9.7-4.8,14.5-6.4h1.6c30.6-11.3,58.1-21,83.9-24.2h3.2c9.7,0,16.1,4.8,21,8.1
	c1.6,0,1.6,1.6,3.2,1.6l22.6-3.2c38.7,119.3,112.9,225.8,211.3,303.2c22.6,17.7,45.2,32.3,69.4,46.8l-9.7,21c0,1.6,1.6,1.6,1.6,3.2
	c3.2,6.5,6.4,14.5,3.2,25.8c-9.7,24.2-24.2,48.4-41.9,75.8v1.6c-3.2,4.8-6.4,8.1-9.7,12.9c-6.5,8.1-11.3,16.1-17.8,25.8
	c-1.6,1.6-3.2,4.8-4.8,8.1c0,1.6-1.6,3.2-1.6,3.2c-12.9,27.4-3.2,58.1,21,69.4c6.4,3.2,12.9,4.8,19.4,4.8
	c19.4,0,38.7-12.9,48.4-30.7c0-1.6,1.6-3.2,1.6-3.2c1.6-3.2,3.2-6.4,4.8-8.1c4.8-11.3,6.5-19.4,9.7-29l4.8-14.5
	c11.3-32.3,19.4-58.1,33.9-80.6c6.4-9.7,14.5-11.3,21-14.5c1.6,0,1.6,0,3.2-1.6l11.3-21c71,27.4,148.4,41.9,225.8,41.9
	c46.8,0,95.2-4.8,140.3-16.1c28.4-6.4,56.4-14.4,83.9-24.2l9.7,17.7c1.6,0,1.6,0,3.2,1.6c8.1,1.6,14.5,4.8,21,14.5
	c12.9,22.6,22.6,50,33.9,80.6v1.6l4.8,14.5c3.2,9.7,4.8,19.4,9.7,29c1.6,3.2,3.2,4.8,4.8,8.1c0,1.6,1.6,3.2,1.6,3.2
	c9.7,19.4,29,30.7,48.4,30.7c6.5,0,12.9-1.6,19.4-4.8c11.3-6.4,21-16.1,24.2-29c3.2-12.9,3.2-27.4-3.2-40.3c0-1.6-1.6-1.6-1.6-3.2
	c-1.6-3.2-3.2-6.4-4.8-8.1c-4.8-9.7-11.3-17.7-17.7-25.8c-3.2-4.8-6.4-8.1-9.7-12.9v-1.6c-17.8-27.4-33.9-51.6-41.9-75.8
	c-3.2-11.3,0-17.7,1.6-25.8c0-1.6,1.6-1.6,1.6-3.2l-8.1-19.4c85.5-50,158.1-121,212.9-208.1c29-45.2,51.6-95.2,67.7-145.2l19.4,3.2
	c1.6,0,1.6-1.6,3.2-1.6c6.5-3.2,11.3-8.1,21-8.1h3.2c25.8,3.2,53.2,12.9,83.9,24.2h1.6c4.8,1.6,9.7,4.8,14.5,6.4
	c9.7,4.8,17.7,8.1,29,11.3c3.2,0,6.4,1.6,9.7,1.6c1.6,0,3.2,0,4.8,1.6c4.8,1.6,8.1,1.6,12.9,1.6c24.2,0,45.2-16.1,51.6-37.1
	C2587,1522,2569.3,1496.2,2540.3,1488.1L2540.3,1488.1z M1793.5,1409.1l-71,33.9l-71-33.9l-17.7-75.8l48.4-61.3h79l48.4,61.3
	L1793.5,1409.1L1793.5,1409.1z M2214.5,1241.3c12.5,53.3,16.3,108.3,11.3,162.9l-246.8-71c-22.6-6.4-35.5-29-30.6-51.6
	c1.6-6.5,4.8-12.9,9.7-17.7l195.2-175.8C2180.6,1133.3,2201.6,1184.9,2214.5,1241.3L2214.5,1241.3z M2075.8,991.3l-211.3,150
	c-17.7,11.3-41.9,8.1-56.5-9.7c-4.8-4.8-6.4-11.3-8.1-17.7L1785.4,851C1895.3,863.7,1997.6,913.1,2075.8,991.3L2075.8,991.3z
	 M1608,859.1c17.7-3.2,33.9-6.4,51.6-9.7l-14.5,258.1c-1.6,22.6-19.4,41.9-43.6,41.9c-6.4,0-14.5-1.6-19.4-4.8l-214.5-153.2
	C1433.8,925.2,1516.1,880,1608,859.1L1608,859.1z M1290.3,1088.1l191.9,171c17.7,14.5,19.4,41.9,4.8,59.7
	c-4.8,6.4-11.3,11.3-19.4,12.9l-250,72.6C1208,1294.6,1232.2,1183.3,1290.3,1088.1L1290.3,1088.1z M1246.7,1525.2l256.5-43.6
	c21-1.6,40.3,12.9,45.2,33.9c1.6,9.7,1.6,17.7-1.6,25.8l-98.4,237.1C1358,1720.4,1285.4,1631.6,1246.7,1525.2L1246.7,1525.2z
	 M1835.4,1846.2c-37.1,8.1-74.2,12.9-112.9,12.9c-56.4,0-111.3-9.7-162.9-25.8l127.4-230.6c12.9-14.5,33.9-21,51.6-11.3
	c7.5,4.6,14.1,10.6,19.4,17.7l124.2,224.2C1867.7,1838.1,1851.6,1841.3,1835.4,1846.2L1835.4,1846.2z M2149.9,1622
	c-40.3,64.5-93.6,116.1-154.8,156.4l-101.6-243.6c-4.8-19.3,3.2-40.3,22.6-50c6.4-3.2,14.5-4.8,22.6-4.8l258.1,43.6
	C2187,1559.1,2170.9,1591.3,2149.9,1622L2149.9,1622z"/>
</svg>
